<svg xmlns="http://www.w3.org/2000/svg" viewBox="0 0 24 24" width="24" height="24">
  <path
    d="M19.077 4.928A9.93 9.93 0 0 0 12.011 2c-5.506 0-9.987 4.479-9.989 9.985a9.96 9.96 0 0 0 1.333 4.992L2 22l5.233-1.237a10 10 0 0 0 4.773 1.216h.004c5.505 0 9.986-4.48 9.989-9.985a9.92 9.92 0 0 0-2.922-7.066m-2.179 10.626c-.208.583-1.227 1.145-1.685 1.186-.458.042-.887.207-2.995-.624-2.537-1-4.139-3.601-4.263-3.767-.125-.167-1.019-1.353-1.019-2.581s.645-1.832.874-2.081a.92.92 0 0 1 .666-.312c.166 0 .333 0 .478.006.178.007.375.016.562.431.222.494.707 1.728.769 1.853s.104.271.021.437-.125.27-.249.416c-.125.146-.262.325-.374.437-.125.124-.255.26-.11.509.146.25.646 1.067 1.388 1.728.954.85 1.757 1.113 2.007 1.239.25.125.395.104.541-.063s.624-.728.79-.978.333-.208.562-.125 1.456.687 1.705.812.416.187.478.291.062.603-.146 1.186" />
</svg>